<?xml version="1.0" standalone="no"?>
<!DOCTYPE svg PUBLIC "-//W3C//DTD SVG 20010904//EN"
 "http://www.w3.org/TR/2001/REC-SVG-20010904/DTD/svg10.dtd">
<svg version="1.0" xmlns="http://www.w3.org/2000/svg"
 width="640.000000pt" height="832.000000pt" viewBox="0 0 640.000000 832.000000"
 preserveAspectRatio="xMidYMid meet">

<g transform="translate(0.000000,832.000000) scale(0.100000,-0.100000)"
fill="#000000" stroke="none">
<path d="M2879 5976 c-2 -3 -16 -7 -29 -10 -95 -21 -199 -50 -285 -81 -102
-37 -326 -145 -357 -173 -10 -8 -18 -11 -18 -7 0 5 -12 -2 -27 -16 -50 -44
-107 -85 -140 -100 -36 -15 -37 -17 -24 -37 6 -10 39 7 137 71 153 100 160
104 289 161 156 68 393 136 477 136 33 0 33 2 12 35 -16 24 -26 30 -35 21z"/>
<path d="M3178 5925 c-2 -2 -38 -5 -79 -6 -42 -1 -85 -7 -95 -13 -20 -11 -30
-36 -16 -36 22 0 54 -197 54 -326 l0 -51 71 -12 c120 -19 209 -37 271 -55 70
-21 226 -97 246 -121 11 -13 13 -72 11 -298 -1 -155 -5 -285 -9 -289 -4 -4
-41 -15 -82 -26 l-75 -20 0 -615 c0 -338 -3 -619 -7 -623 -5 -4 -10 -5 -14 -2
-3 3 -8 204 -11 447 l-6 441 -64 0 -63 0 0 -137 c-1 -227 -12 -738 -16 -742
-3 -3 -11 2 -20 10 -13 13 -16 109 -21 707 l-6 692 -54 0 c-30 0 -63 -5 -73
-10 -13 -7 -21 -7 -26 1 -4 8 -59 10 -174 8 -92 -2 -166 -7 -164 -10 2 -4 30
-12 63 -20 l59 -13 7 -193 c4 -107 5 -276 1 -376 -3 -100 -6 -245 -6 -322 -1
-77 -4 -133 -8 -124 -13 30 -50 69 -73 78 -30 11 -123 24 -166 24 -20 0 -33 5
-33 12 0 8 -3 15 -7 18 -5 2 -3 2 4 1 20 -5 23 8 28 137 6 180 14 169 -116
169 l-109 0 0 -473 0 -473 53 -31 c70 -43 207 -97 298 -118 99 -23 314 -36
409 -23 95 12 215 50 310 98 122 61 293 194 343 267 l27 39 4 638 c4 500 8
641 18 654 10 11 14 101 16 384 l3 368 -116 0 c-104 0 -115 2 -115 18 0 10 6
26 13 35 11 15 29 17 147 15 l135 -3 3 -348 2 -348 49 -64 c27 -35 57 -78 67
-94 10 -17 24 -31 31 -31 26 0 12 -21 -37 -56 -27 -20 -50 -40 -50 -44 0 -5
15 -57 34 -117 82 -261 85 -450 11 -708 -28 -99 -117 -288 -177 -378 -107
-159 -304 -300 -516 -370 -135 -45 -266 -61 -430 -54 -107 4 -142 10 -221 36
-144 48 -361 167 -361 198 0 9 -33 49 -73 91 -39 41 -79 82 -87 91 -34 36
-126 181 -166 261 -94 188 -144 481 -115 669 9 55 9 77 0 87 -9 11 -8 15 5 20
9 3 16 14 16 23 0 25 53 167 100 268 41 86 126 222 174 275 39 43 184 156 257
199 37 22 70 47 73 55 3 9 11 12 18 8 7 -4 10 -3 5 1 -4 5 10 17 30 27 l38 19
-35 -6 c-51 -9 -51 -9 -105 -35 -60 -30 -86 -50 -78 -63 3 -6 1 -7 -6 -3 -6 4
-22 -5 -37 -23 -14 -17 -29 -29 -34 -26 -4 2 -17 -8 -30 -24 -12 -16 -31 -32
-43 -35 -34 -8 -121 -91 -112 -106 5 -8 4 -11 -3 -7 -14 9 -43 -3 -36 -14 3
-5 -1 -6 -9 -3 -8 3 -29 -12 -50 -36 -35 -38 -48 -70 -28 -70 5 0 11 -13 13
-29 3 -18 0 -28 -6 -24 -5 4 -7 -1 -3 -11 4 -10 3 -15 -3 -11 -6 3 -10 2 -10
-3 0 -6 -7 -13 -16 -16 -14 -5 -15 -4 -4 9 10 12 10 15 -3 15 -11 0 -14 5 -10
17 4 11 3 14 -5 9 -16 -10 -64 -115 -95 -211 -93 -282 -84 -598 24 -880 61
-159 126 -264 277 -444 81 -98 292 -250 382 -276 14 -4 50 -19 80 -35 87 -43
131 -55 141 -39 13 19 47 -23 98 -117 36 -66 86 -145 127 -202 l16 -22 -74 0
c-108 0 -227 16 -366 51 -149 36 -290 88 -272 99 8 5 3 7 -14 7 -19 -2 -23 -5
-14 -12 7 -5 28 -28 47 -50 77 -90 768 -787 794 -801 36 -19 -4 -61 518 541
218 252 309 365 309 387 0 5 -7 8 -15 8 -31 0 13 57 155 200 240 241 423 548
506 848 55 203 64 314 64 830 0 248 -2 452 -5 452 -22 0 -182 -124 -306 -237
-82 -75 -159 -143 -171 -151 -20 -15 -21 -14 -14 4 4 10 9 29 11 42 3 30 36
64 159 165 54 45 148 127 207 181 l109 99 0 73 c0 88 -1 89 -146 174 -178 104
-309 166 -516 244 -239 89 -427 131 -636 141 -59 3 -121 8 -139 10 -17 2 -33
2 -35 0z m520 -1608 c2 -748 0 -877 -12 -877 -10 0 -16 17 -20 58 -4 48 -2
1611 2 1680 1 14 7 22 15 20 9 -4 13 -191 15 -881z m-548 311 c-1 -57 -1 -274
0 -483 0 -209 -3 -381 -7 -382 -30 -9 -33 18 -38 354 -4 222 -2 384 5 465 13
137 15 148 30 148 8 0 11 -34 10 -102z m-122 -90 c21 -2 28 -9 30 -32 2 -18 0
-26 -7 -21 -6 3 -11 1 -11 -6 0 -8 -5 -8 -17 2 -16 11 -16 11 -5 -1 7 -8 18
-15 25 -15 6 0 13 -8 15 -17 3 -14 -3 -18 -26 -18 -26 0 -29 -3 -25 -21 4 -14
8 -17 13 -8 5 6 15 9 23 6 10 -4 14 -24 15 -71 1 -59 -1 -66 -18 -66 -12 0
-20 -7 -20 -16 0 -11 6 -14 20 -9 18 6 20 2 20 -34 0 -34 -3 -39 -17 -34 -16
6 -16 5 -4 -11 26 -31 25 -356 -1 -340 -6 4 -8 28 -5 60 3 31 2 54 -4 54 -5 0
-9 -24 -9 -52 -1 -36 -3 -48 -10 -38 -5 9 -11 133 -15 275 -3 143 -8 302 -9
354 -4 96 6 172 12 99 3 -32 7 -37 30 -40z m602 -768 c0 -213 -4 -330 -10
-330 -5 0 -10 12 -10 28 0 15 -3 151 -7 303 -6 269 -3 329 17 329 6 0 10 -121
10 -330z m-1725 240 c3 -5 1 -10 -4 -10 -6 0 -11 5 -11 10 0 6 2 10 4 10 3 0
8 -4 11 -10z m1 -35 c-3 -8 -2 -15 3 -15 10 0 46 -149 38 -157 -4 -3 -1 -15 6
-27 12 -22 19 -61 8 -50 -3 3 -7 10 -7 15 -1 5 -2 13 -3 19 0 5 -13 20 -27 34
-20 18 -25 31 -22 50 3 14 2 26 -1 26 -3 0 -7 27 -7 60 -1 34 3 60 8 60 6 0 8
-7 4 -15z m655 -52 c-9 -16 -10 -14 -11 12 0 21 3 26 11 18 8 -8 8 -16 0 -30z
m-4 -88 c35 -8 41 -23 33 -75 l-5 -35 -57 -1 -57 -2 -6 53 c-4 30 -4 58 -1 64
7 10 32 9 93 -4z m335 -121 c3 -3 4 -13 1 -22 -3 -14 -19 -18 -89 -20 -79 -3
-84 -2 -84 17 0 17 8 21 53 24 101 7 114 7 119 1z m-308 -129 c0 -60 -1 -142
-2 -181 l-2 -70 -41 -18 c-22 -10 -42 -16 -44 -15 -4 6 -14 115 -15 174 0 36
-3 46 -10 35 -5 -8 -10 -10 -10 -4 0 5 5 15 12 22 9 9 9 12 0 12 -8 0 -10 18
-6 63 7 75 29 100 83 95 l36 -3 -1 -110z m310 40 c9 -24 -27 -35 -114 -35 -77
0 -80 1 -70 19 10 20 37 26 131 29 33 2 49 -2 53 -13z m4 -107 c-3 -22 -8 -23
-97 -26 -102 -3 -131 2 -114 19 12 12 94 26 166 28 45 1 48 -1 45 -21z m-431
-170 c-2 -18 -4 -6 -4 27 0 33 2 48 4 33 2 -15 2 -42 0 -60z m431 70 c7 -7 12
-25 12 -41 0 -24 -3 -28 -17 -22 -10 4 -62 9 -116 12 -92 6 -98 7 -95 27 3 18
12 22 58 27 97 10 146 9 158 -3z"/>
<path d="M3010 4330 c0 -5 10 -10 23 -10 18 0 19 2 7 10 -19 13 -30 13 -30 0z"/>
<path d="M3022 4095 c0 -16 2 -22 5 -12 2 9 2 23 0 30 -3 6 -5 -1 -5 -18z"/>
<path d="M2925 5431 c-6 -5 -44 -16 -85 -24 -122 -25 -138 -37 -40 -29 47 4
170 7 273 7 155 -1 185 2 171 12 -10 7 -39 13 -64 13 -25 0 -50 4 -55 9 -14
13 -188 24 -200 12z"/>
<path d="M2929 5258 c0 -18 0 -81 1 -139 l1 -106 -58 -53 c-63 -56 -54 -58 14
-2 47 37 58 36 66 -7 5 -23 14 -32 39 -40 27 -7 15 -10 -67 -11 -55 -1 -108
-2 -117 -1 -10 1 -18 -4 -18 -13 0 -13 13 -16 68 -17 102 -1 247 2 251 7 2 2
-29 38 -69 81 -40 42 -76 88 -81 101 -5 13 -9 68 -9 122 0 55 -4 102 -10 105
-6 4 -10 -8 -11 -27z"/>
<path d="M2263 5155 c0 -8 4 -12 9 -9 5 3 6 10 3 15 -9 13 -12 11 -12 -6z"/>
<path d="M2250 4070 c-14 -4 -53 -8 -87 -9 -54 -1 -63 -4 -68 -22 -4 -12 -4
-105 0 -208 l7 -186 41 -70 c39 -67 131 -175 148 -175 5 0 9 153 9 340 0 266
-3 340 -12 339 -7 -1 -24 -5 -38 -9z"/>
<path d="M1624 3394 c7 -34 26 -65 37 -59 5 4 8 3 7 -2 -4 -14 13 -53 23 -53
5 0 9 -5 9 -11 0 -19 65 -101 130 -164 34 -33 78 -77 98 -98 20 -21 67 -61
104 -89 52 -38 73 -48 90 -43 16 4 19 3 9 -3 -17 -12 3 -27 22 -16 6 4 9 3 4
-1 -13 -15 75 -65 113 -65 33 1 33 2 14 13 -31 17 -77 75 -69 87 6 10 -13 15
-48 12 -18 -2 -21 3 -31 51 -4 15 -11 25 -17 22 -5 -4 -9 -3 -8 2 5 29 -3 43
-25 43 -30 0 -43 17 -19 23 10 3 5 4 -12 4 -16 -1 -35 -8 -41 -16 -12 -16 -49
-8 -39 9 3 5 1 10 -4 10 -6 0 -11 8 -12 18 0 16 -1 16 -8 -1 -6 -17 -8 -17
-26 4 -11 12 -15 19 -8 16 6 -4 14 -3 18 3 3 5 -1 10 -10 10 -9 0 -14 4 -10 9
3 5 -3 12 -12 14 -17 4 -17 5 0 6 15 1 22 12 18 34 0 4 5 7 13 7 8 0 17 6 19
13 4 9 6 9 6 0 1 -6 -3 -15 -9 -18 -13 -8 -13 -45 1 -45 5 0 7 5 4 10 -3 6 1
10 9 10 9 0 16 8 16 18 0 15 2 15 11 2 9 -12 10 -11 6 7 -3 12 0 24 7 27 6 2
3 5 -7 5 -11 1 -15 6 -11 13 5 7 0 9 -14 6 -12 -3 -20 -3 -19 1 4 15 -37 62
-50 57 -10 -4 -13 1 -11 17 2 13 -2 21 -9 20 -7 -2 -13 4 -13 12 0 9 -9 15
-25 15 -14 0 -25 -4 -25 -10 0 -5 -7 -10 -15 -10 -8 0 -15 7 -15 16 0 8 4 13
8 10 5 -3 9 1 9 9 0 10 -5 11 -19 4 -10 -6 -16 -15 -12 -22 4 -7 -6 3 -23 21
-27 29 -73 47 -58 22 9 -15 -14 -12 -30 4 -10 10 -11 16 -2 25 8 8 4 11 -16 9
-21 -2 -26 -7 -23 -24z m36 -18 c0 -3 -4 -8 -10 -11 -5 -3 -10 -1 -10 4 0 6 5
11 10 11 6 0 10 -2 10 -4z"/>
<path d="M2021 3164 c0 -11 3 -14 6 -6 3 7 2 16 -1 19 -3 4 -6 -2 -5 -13z"/>
</g>
</svg>
